<svg xmlns="http://www.w3.org/2000/svg" viewBox="0 0 64 64" fill="none">
  <rect width="64" height="64" fill="#ffffff"/>

  <g stroke="#111111" stroke-linecap="round" stroke-width="2.6">
    <!-- Big burst -->
    <circle cx="34" cy="18" r="1.5" fill="#111111" stroke="none"/>
    <line x1="34" y1="5" x2="34" y2="11"/>
    <line x1="34" y1="25" x2="34" y2="31"/>
    <line x1="21" y1="18" x2="27" y2="18"/>
    <line x1="41" y1="18" x2="47" y2="18"/>
    <line x1="24.5" y1="8.5" x2="28.8" y2="12.8"/>
    <line x1="39.2" y1="23.2" x2="43.5" y2="27.5"/>
    <line x1="39.2" y1="12.8" x2="43.5" y2="8.5"/>
    <line x1="24.5" y1="27.5" x2="28.8" y2="23.2"/>
    <line x1="26.5" y1="4.8" x2="29.2" y2="11.2"/>
    <line x1="41.5" y1="31.2" x2="38.8" y2="24.8"/>
    <line x1="45.8" y1="24.5" x2="39.4" y2="21.8"/>
    <line x1="22.2" y1="11.5" x2="28.6" y2="14.2"/>

    <!-- Left burst -->
    <circle cx="16" cy="33" r="1.2" fill="#111111" stroke="none"/>
    <line x1="16" y1="24" x2="16" y2="28.2"/>
    <line x1="16" y1="37.8" x2="16" y2="42"/>
    <line x1="7" y1="33" x2="11.2" y2="33"/>
    <line x1="20.8" y1="33" x2="25" y2="33"/>
    <line x1="9.6" y1="26.6" x2="12.8" y2="29.8"/>
    <line x1="19.2" y1="36.2" x2="22.4" y2="39.4"/>
    <line x1="19.2" y1="29.8" x2="22.4" y2="26.6"/>
    <line x1="9.6" y1="39.4" x2="12.8" y2="36.2"/>

    <!-- Right burst -->
    <circle cx="41" cy="42" r="1.2" fill="#111111" stroke="none"/>
    <line x1="41" y1="34" x2="41" y2="37.8"/>
    <line x1="41" y1="46.2" x2="41" y2="50"/>
    <line x1="33" y1="42" x2="36.8" y2="42"/>
    <line x1="45.2" y1="42" x2="49" y2="42"/>
    <line x1="35.6" y1="36.6" x2="38.4" y2="39.4"/>
    <line x1="43.6" y1="44.6" x2="46.4" y2="47.4"/>
    <line x1="43.6" y1="39.4" x2="46.4" y2="36.6"/>
    <line x1="35.6" y1="47.4" x2="38.4" y2="44.6"/>

    <!-- Sparkles -->
    <path d="M10 15l1.2 2.8L14 19l-2.8 1.2L10 23l-1.2-2.8L6 19l2.8-1.2L10 15z"/>
    <path d="M53 24l1 2.3L56.3 27l-2.3 1L53 30.3l-1-2.3L49.7 27l2.3-0.7L53 24z"/>
    <path d="M19 50l1.1 2.5L22.6 54l-2.5 1.1L19 57.6l-1.1-2.5L15.4 54l2.5-1.5L19 50z"/>

    <!-- Stem -->
    <path d="M31 58c-1.5-8.5-5.3-13.8-9.8-17.5"/>
    <path d="M32.5 58c0.8-6.8 3.7-11.6 8-15"/>
  </g>
</svg>
